<?xml version="1.0" standalone="no"?>
<!DOCTYPE svg PUBLIC "-//W3C//DTD SVG 20010904//EN"
 "http://www.w3.org/TR/2001/REC-SVG-20010904/DTD/svg10.dtd">
<svg version="1.0" xmlns="http://www.w3.org/2000/svg"
 width="800.000000pt" height="800.000000pt" viewBox="0 0 800.000000 800.000000"
 preserveAspectRatio="xMidYMid meet">
<metadata>
Created by potrace 1.14, written by Peter Selinger 2001-2017
</metadata>
<g transform="translate(0.000000,800.000000) scale(0.100000,-0.100000)"
fill="#000000" stroke="none">
<path d="M3610 7986 c-1105 -116 -2091 -659 -2767 -1523 -441 -563 -715 -1220
-814 -1948 -26 -193 -37 -633 -20 -838 93 -1119 646 -2144 1528 -2834 563
-441 1220 -715 1948 -814 193 -26 633 -37 838 -20 1119 93 2144 646 2834 1528
441 563 715 1220 814 1948 26 193 37 633 20 838 -93 1119 -646 2144 -1528
2834 -563 441 -1217 714 -1948 814 -193 27 -712 35 -905 15z m760 -2577 l0
-1090 23 7 c12 3 462 148 1000 321 539 173 981 312 984 310 2 -3 51 -151 107
-329 l103 -323 -1004 -333 c-747 -248 -1002 -336 -995 -345 10 -13 1155 -1583
1208 -1658 l33 -45 -275 -203 c-151 -111 -280 -204 -287 -206 -7 -2 -282 369
-635 856 -343 472 -627 859 -632 859 -4 0 -288 -387 -631 -859 -343 -473 -628
-859 -633 -857 -5 1 -134 94 -287 207 l-277 204 22 30 c98 130 1217 1669 1219
1676 1 5 -446 159 -993 341 -547 181 -997 332 -999 334 -4 4 197 644 204 652
2 2 443 -138 981 -311 539 -173 989 -318 1002 -321 l22 -7 0 1090 0 1091 370
0 370 0 0 -1091z"/>
</g>
</svg>
